<?xml version="1.0" standalone="no"?>
<!DOCTYPE svg PUBLIC "-//W3C//DTD SVG 20010904//EN"
 "http://www.w3.org/TR/2001/REC-SVG-20010904/DTD/svg10.dtd">
<svg version="1.0" xmlns="http://www.w3.org/2000/svg"
 width="256.000000pt" height="256.000000pt" viewBox="0 0 256.000000 256.000000"
 preserveAspectRatio="xMidYMid meet">

<g transform="translate(0.000000,256.000000) scale(0.100000,-0.100000)"
fill="#862489" stroke="none">
<path d="M1125 2426 c-382 -60 -691 -343 -786 -721 -33 -128 -33 -323 0 -450
74 -289 258 -514 523 -640 137 -65 244 -88 403 -89 133 0 203 10 310 46 306
104 541 359 621 676 29 116 33 308 8 430 -41 202 -165 407 -325 538 -142 116
-318 192 -494 213 -110 13 -156 13 -260 -3z m236 -301 c63 -41 89 -138 54
-204 -18 -35 -69 -79 -101 -87 l-24 -6 0 -144 c0 -79 3 -144 8 -144 20 2 157
108 153 121 -11 42 -12 111 -1 143 36 111 167 167 275 117 153 -71 153 -291 0
-362 -69 -32 -155 -19 -226 32 -13 10 -32 1 -110 -52 l-94 -64 -3 -297 -2
-297 157 -3 c150 -3 158 -4 158 -23 0 -20 -7 -20 -335 -20 -328 0 -335 0 -335
20 0 19 8 20 153 23 l152 3 0 279 0 280 -39 -28 c-34 -23 -39 -32 -38 -64 2
-70 -44 -119 -114 -120 -48 0 -85 22 -106 68 -15 29 -15 41 -5 80 8 30 9 51 2
62 -24 42 -25 43 -56 32 -75 -29 -178 27 -203 110 -33 110 56 219 170 208 121
-12 186 -138 125 -244 l-23 -41 21 -26 c18 -23 27 -26 57 -21 24 4 49 0 73
-11 l36 -17 47 34 48 34 3 166 2 165 -41 18 c-57 26 -90 78 -91 143 -1 138
137 213 253 137z m249 -35 c24 -24 26 -77 3 -102 -20 -23 -80 -24 -105 -1 -24
22 -24 77 2 103 11 11 33 20 50 20 17 0 39 -9 50 -20z m-620 -65 c32 -17 60
-61 60 -95 0 -29 -26 -76 -52 -94 -63 -44 -163 3 -169 79 -3 44 2 58 35 91 38
38 77 44 126 19z m187 -287 c39 -36 30 -99 -18 -124 -54 -28 -109 8 -109 70 0
66 79 100 127 54z m497 -252 c45 -19 66 -52 66 -102 0 -77 -71 -128 -146 -104
-91 30 -97 161 -10 204 39 19 48 19 90 2z m-213 -135 c50 -40 17 -131 -48
-131 -32 0 -73 42 -73 75 0 33 41 75 73 75 14 0 35 -8 48 -19z"/>
<path d="M1223 2096 c-83 -37 -90 -161 -11 -202 49 -25 96 -18 134 20 37 37
45 82 22 130 -22 51 -92 75 -145 52z"/>
<path d="M1574 1876 c-51 -22 -79 -72 -79 -138 0 -95 63 -153 157 -145 90 8
147 80 135 170 -13 99 -118 154 -213 113z"/>
<path d="M774 1721 c-37 -22 -59 -78 -49 -119 9 -38 53 -81 90 -88 104 -19
177 108 107 187 -36 41 -102 50 -148 20z"/>
<path d="M1000 1390 c-29 -29 -26 -74 6 -99 35 -27 59 -26 89 4 30 30 31 54 4
89 -25 32 -70 35 -99 6z"/>
<path d="M12 358 c3 -7 21 -14 41 -16 l37 -3 0 -105 c0 -63 4 -104 10 -104 6
0 10 41 10 104 l0 105 35 3 c68 6 35 23 -51 26 -67 2 -85 0 -82 -10z"/>
<path d="M246 363 c-3 -3 -6 -57 -6 -120 0 -94 3 -113 15 -113 12 0 15 19 15
114 0 105 -6 136 -24 119z"/>
<path d="M347 363 c-4 -3 -7 -57 -7 -120 0 -94 3 -113 15 -113 12 0 15 17 15
93 l0 92 33 -47 c17 -26 37 -47 42 -47 6 -1 24 20 40 44 l30 45 5 -87 c3 -56
9 -88 18 -91 9 -3 12 24 12 112 0 63 -4 117 -9 121 -5 3 -29 -22 -52 -55 -23
-33 -43 -60 -44 -60 -1 0 -21 27 -44 60 -45 64 -44 63 -54 53z"/>
<path d="M625 357 c-3 -7 -4 -62 -3 -123 l3 -109 69 0 c47 0 71 4 74 13 3 9
-14 12 -63 12 l-66 0 3 48 3 47 53 3 c69 4 67 22 -3 22 l-55 0 0 35 0 34 63 3
c83 4 79 22 -6 26 -50 2 -69 -1 -72 -11z"/>
<path d="M910 355 c0 -10 11 -15 35 -15 l35 0 0 -105 c0 -87 3 -105 15 -105
12 0 15 18 15 105 l0 105 35 0 c24 0 35 5 35 15 0 12 -16 15 -85 15 -69 0 -85
-3 -85 -15z"/>
<path d="M1162 353 c-86 -42 -91 -163 -10 -213 86 -52 178 4 178 108 0 38 -5
55 -25 76 -43 47 -89 56 -143 29z m122 -44 c17 -19 26 -43 26 -64 0 -21 -9
-45 -26 -64 -35 -42 -98 -44 -138 -5 -60 61 -17 164 70 164 35 0 47 -5 68 -31z"/>
<path d="M1994 351 c-18 -11 -39 -30 -48 -42 -20 -29 -21 -91 -1 -128 15 -30
69 -61 105 -61 57 0 120 65 120 125 0 43 -35 94 -75 111 -45 19 -64 18 -101
-5z m120 -37 c20 -21 26 -37 26 -71 0 -61 -32 -93 -94 -93 -37 0 -48 5 -70 31
-36 43 -35 91 3 130 40 39 97 41 135 3z"/>
<path d="M1452 245 c2 -66 7 -116 13 -118 6 -1 11 14 13 34 2 22 12 45 26 58
l23 22 42 -56 c36 -48 61 -68 61 -49 0 3 -20 31 -44 63 l-45 58 45 44 c24 24
44 47 44 51 0 21 -28 2 -86 -59 l-64 -66 0 66 c0 54 -3 67 -15 67 -13 0 -15
-17 -13 -115z"/>
<path d="M1700 239 c0 -142 17 -155 22 -16 l3 88 69 -96 c41 -57 72 -93 78
-87 14 14 5 225 -9 230 -10 3 -13 -19 -13 -89 l0 -93 -65 90 c-36 49 -70 91
-75 92 -6 2 -10 -43 -10 -119z"/>
<path d="M2190 357 c0 -9 92 -223 99 -230 5 -5 21 21 36 57 15 36 31 66 35 66
4 0 20 -29 35 -65 15 -35 31 -62 35 -60 12 8 102 227 95 233 -8 8 -20 -8 -38
-53 -8 -22 -25 -62 -37 -90 l-22 -50 -27 65 c-15 36 -34 65 -42 65 -7 0 -24
-28 -38 -63 -13 -34 -27 -60 -30 -57 -3 3 -22 45 -42 93 -20 47 -42 88 -48 90
-6 2 -11 2 -11 -1z"/>
</g>
</svg>
