<?xml version="1.0" standalone="no"?>
<!DOCTYPE svg PUBLIC "-//W3C//DTD SVG 20010904//EN"
 "http://www.w3.org/TR/2001/REC-SVG-20010904/DTD/svg10.dtd">
<svg version="1.0" xmlns="http://www.w3.org/2000/svg"
 width="2050.000000pt" height="791.000000pt" viewBox="0 0 2050.000000 791.000000"
 preserveAspectRatio="xMidYMid meet">

<g transform="translate(0.000000,791.000000) scale(0.100000,-0.100000)"
fill="#9c048c" stroke="none">
<path d="M19167 7041 l-697 -636 221 -5 c217 -5 221 -5 240 -29 10 -13 19 -34
19 -48 0 -13 -304 -687 -676 -1498 -694 -1511 -686 -1495 -716 -1451 -4 6 -8
193 -8 414 0 372 -4 456 -45 1071 -29 428 -51 689 -61 726 -44 172 -129 221
-363 212 -133 -5 -214 -22 -352 -75 -73 -28 -74 -28 -71 -62 27 -369 204
-2524 212 -2573 29 -189 141 -274 398 -302 34 -4 62 -9 62 -12 0 -3 -21 -45
-47 -92 -213 -393 -459 -580 -763 -581 -107 0 -222 16 -357 50 -136 34 -124
39 -201 -74 -85 -122 -162 -295 -177 -397 l-7 -46 44 -16 c64 -24 222 -64 313
-79 105 -16 437 -16 540 1 304 50 522 155 727 350 187 179 364 420 540 736 46
83 465 947 932 1920 466 974 858 1781 870 1793 50 56 79 62 292 62 153 0 195
3 191 13 -2 6 -84 293 -182 637 -97 344 -178 626 -179 626 0 1 -315 -284 -699
-635z"/>
<path d="M9913 7128 c-18 -19 -88 -362 -427 -2078 -379 -1918 -405 -2056 -389
-2068 27 -20 246 -88 373 -116 338 -74 749 -91 1010 -41 321 62 629 231 862
472 290 302 455 658 529 1143 26 175 36 473 19 606 -50 405 -225 646 -530 731
-53 15 -101 18 -260 17 -185 0 -201 -2 -310 -31 -139 -37 -263 -89 -370 -153
-55 -33 -80 -44 -80 -33 0 8 52 276 116 596 98 490 117 598 118 682 1 91 -2
105 -27 158 -22 44 -39 63 -74 84 -73 43 -139 53 -349 53 -185 0 -191 -1 -211
-22z m999 -1975 c127 -57 188 -197 188 -433 0 -251 -73 -603 -175 -839 -63
-148 -123 -239 -225 -342 -102 -103 -183 -152 -300 -180 -72 -18 -240 -15
-360 5 -119 21 -130 24 -130 41 0 7 67 351 149 765 l149 751 38 35 c64 57 198
143 266 170 137 56 307 67 400 27z"/>
<path d="M12913 7128 c-18 -19 -78 -312 -377 -1823 -195 -990 -360 -1829 -366
-1865 -15 -95 -12 -247 5 -315 52 -197 186 -289 455 -311 93 -7 320 8 525 34
l130 17 17 52 c47 142 69 331 50 438 l-7 40 -130 6 c-146 6 -190 20 -227 73
-49 68 -55 32 278 1711 298 1502 308 1554 309 1670 0 104 -3 125 -22 160 -59
111 -136 135 -427 135 -187 0 -193 -1 -213 -22z"/>
<path d="M1722 5819 c-621 -72 -1108 -553 -1323 -1304 -120 -419 -144 -882
-58 -1161 95 -312 335 -509 699 -575 112 -21 465 -18 610 4 281 43 560 138
778 266 l72 42 0 77 c0 99 -21 197 -61 283 -51 109 -47 108 -186 56 -261 -98
-434 -136 -648 -144 -127 -4 -174 -2 -228 11 -222 52 -310 190 -311 486 0 74
3 147 7 163 l7 27 814 0 813 0 43 111 c187 486 207 894 59 1195 -77 158 -191
269 -364 355 -196 97 -467 138 -723 108z m256 -567 c107 -41 175 -128 202
-259 14 -67 8 -273 -10 -350 l-12 -53 -489 0 -489 0 6 28 c18 74 71 216 109
292 101 201 231 317 399 356 81 18 216 12 284 -14z"/>
<path d="M15190 5823 c-161 -16 -356 -71 -490 -138 -302 -152 -574 -449 -740
-808 -168 -364 -264 -862 -238 -1239 24 -363 176 -627 436 -757 90 -45 206
-83 312 -102 112 -21 465 -18 610 4 281 43 561 139 778 266 l72 42 0 77 c0 42
-7 109 -15 147 -16 77 -89 235 -108 235 -7 0 -58 -18 -114 -39 -129 -49 -282
-95 -409 -122 -137 -29 -383 -37 -477 -15 -222 52 -310 190 -311 486 0 74 3
147 7 163 l7 27 814 0 814 0 45 123 c186 507 204 880 56 1183 -77 157 -191
269 -364 355 -184 91 -452 135 -685 112z m220 -572 c30 -11 71 -34 91 -50 43
-36 93 -127 108 -199 15 -74 14 -222 -4 -322 -8 -47 -15 -86 -15 -87 0 -2
-221 -3 -490 -3 l-490 0 6 28 c18 74 71 216 109 292 101 201 231 317 399 356
82 19 215 12 286 -15z"/>
<path d="M7770 5809 c-339 -18 -674 -87 -1030 -211 l-125 -44 -3 -131 c-3
-140 10 -225 47 -323 38 -98 31 -96 167 -54 190 57 490 131 605 148 59 9 154
16 212 16 183 0 279 -45 334 -158 25 -51 28 -67 27 -152 -1 -79 -32 -271 -45
-285 -3 -2 -97 1 -209 6 -521 26 -831 -38 -1136 -236 -308 -200 -504 -565
-504 -937 1 -216 51 -351 179 -479 113 -112 223 -166 394 -194 338 -55 688 47
1019 296 l78 58 31 -59 c62 -117 198 -215 354 -255 106 -27 115 -24 206 62 82
78 164 181 213 266 l28 47 -30 34 c-48 55 -67 125 -66 241 1 85 21 197 133
760 72 363 136 703 142 755 55 481 -209 784 -722 830 -63 5 -125 9 -139 8 -14
0 -86 -4 -160 -9z m86 -1702 c7 -7 -94 -509 -103 -518 -32 -29 -180 -127 -235
-155 -136 -69 -210 -88 -343 -88 -106 -1 -125 2 -162 21 -51 27 -96 82 -112
132 -29 97 -5 258 55 372 45 85 104 141 197 184 122 58 180 65 455 61 134 -2
246 -6 248 -9z"/>
<path d="M5077 5785 c-189 -31 -425 -131 -638 -271 -62 -40 -117 -74 -121 -74
-4 0 -8 15 -8 34 0 19 -9 63 -20 98 -25 82 -80 147 -152 179 -49 22 -68 24
-258 27 -204 4 -205 4 -226 -20 -17 -19 -68 -262 -304 -1458 -156 -789 -285
-1440 -287 -1446 -6 -16 30 -22 214 -36 126 -9 198 -9 330 0 92 7 180 15 194
18 27 6 28 9 83 292 31 158 120 607 197 998 l141 710 92 68 c179 134 334 195
506 203 126 6 181 -6 226 -51 45 -45 57 -100 51 -226 -4 -80 -41 -285 -157
-865 -131 -656 -152 -774 -152 -860 -2 -160 38 -230 158 -275 159 -59 417 -27
599 74 89 50 88 49 64 147 -19 72 -21 103 -16 214 4 114 21 210 132 770 70
352 138 699 152 770 33 171 38 408 10 530 -55 237 -186 379 -404 436 -104 27
-289 33 -406 14z"/>
<path d="M14436 2236 c-54 -20 -85 -45 -121 -95 -37 -53 -47 -148 -21 -216 21
-54 91 -120 145 -136 l41 -12 0 -237 0 -237 -82 -55 -83 -54 -40 23 c-42 24
-112 31 -144 13 -15 -7 -24 -1 -49 35 l-31 45 32 51 c28 46 32 61 32 124 0 62
-4 78 -30 121 -83 133 -275 151 -376 36 -43 -49 -59 -92 -59 -159 1 -103 55
-180 154 -218 45 -17 113 -17 171 0 16 5 28 -3 52 -38 l32 -44 -19 -39 c-25
-48 -25 -87 -1 -140 29 -63 72 -89 152 -89 56 0 71 4 101 27 45 35 73 102 64
157 -6 42 -13 34 97 105 l27 18 0 -411 0 -411 -227 -2 c-216 -3 -228 -4 -231
-22 -9 -45 5 -46 494 -46 407 0 464 2 478 16 12 11 13 20 6 35 -10 17 -26 19
-233 21 l-222 3 0 430 0 430 143 98 142 98 42 -36 c86 -73 219 -84 321 -27 58
32 119 104 136 162 43 143 -29 298 -166 357 -58 25 -167 23 -228 -5 -133 -61
-204 -212 -161 -343 10 -28 14 -55 9 -59 -19 -16 -232 -160 -237 -160 -3 0 -6
96 -6 213 l0 212 51 18 c160 57 207 254 90 380 -59 64 -168 92 -245 63z m151
-72 c93 -45 123 -175 56 -254 -82 -98 -234 -79 -285 37 -62 141 88 283 229
217z m546 -307 c143 -60 187 -233 89 -348 -45 -53 -101 -78 -171 -79 -176 0
-278 187 -185 337 53 86 177 127 267 90z m-1163 -229 c58 -40 75 -72 75 -143
0 -71 -17 -103 -75 -142 -40 -28 -116 -31 -167 -6 -79 37 -113 154 -68 231 46
77 165 107 235 60z m277 -468 c64 -39 61 -140 -6 -174 -38 -20 -64 -20 -101
-1 -37 19 -50 43 -50 92 1 84 84 128 157 83z"/>
<path d="M14893 2175 c-33 -14 -63 -59 -63 -95 0 -31 29 -76 57 -89 52 -24
115 -5 139 40 31 60 9 119 -52 145 -40 17 -41 17 -81 -1z"/>
<path d="M13946 2058 c-74 -44 -100 -149 -53 -219 69 -104 223 -96 276 15 27
54 26 81 -1 136 -31 59 -66 82 -130 87 -42 3 -61 -1 -92 -19z"/>
<path d="M14253 1665 c-76 -33 -83 -157 -11 -192 41 -20 56 -22 92 -12 48 13
76 51 76 103 0 48 -19 80 -60 101 -35 18 -55 18 -97 0z"/>
<path d="M14975 1280 c-50 -21 -95 -90 -95 -147 0 -37 35 -104 67 -128 17 -12
49 -21 85 -23 50 -4 64 -1 97 21 130 86 68 289 -89 286 -25 0 -54 -4 -65 -9z"/>
<path d="M4052 1218 c-7 -7 -12 -21 -12 -33 0 -40 17 -45 157 -45 l133 0 0
-383 c0 -285 3 -386 12 -395 18 -18 56 -14 68 7 6 13 10 156 10 395 l0 376
128 0 c86 0 132 4 140 12 15 15 15 51 0 66 -17 17 -619 17 -636 0z"/>
<path d="M4912 1218 c-17 -17 -17 -839 0 -856 18 -18 56 -14 68 7 6 13 10 165
10 425 0 354 -2 407 -16 420 -18 19 -45 21 -62 4z"/>
<path d="M5282 1214 l-22 -15 0 -405 c0 -260 4 -412 10 -425 12 -22 52 -25 69
-6 7 9 12 121 13 346 l3 332 126 -173 c168 -232 147 -231 309 -6 l125 173 5
-330 c3 -181 9 -336 13 -342 10 -16 49 -17 65 -1 9 9 12 116 12 423 0 225 -4
415 -8 421 -13 19 -39 23 -58 9 -11 -7 -82 -101 -159 -209 -77 -107 -143 -194
-147 -193 -4 1 -71 90 -149 197 -129 179 -163 220 -179 220 -3 0 -16 -7 -28
-16z"/>
<path d="M6289 1213 c-11 -13 -15 -94 -17 -413 -2 -250 1 -407 7 -423 l11 -27
259 0 c250 0 261 1 271 20 12 23 0 54 -26 64 -8 3 -108 6 -220 6 l-204 0 0
175 0 175 188 0 c197 0 212 3 212 45 0 42 -15 45 -212 45 l-188 0 0 130 0 130
214 0 c182 0 217 2 230 16 20 19 20 24 0 52 -15 22 -18 22 -263 22 -219 0
-250 -2 -262 -17z"/>
<path d="M7322 1218 c-7 -7 -12 -21 -12 -33 0 -40 17 -45 157 -45 l133 0 2
-392 3 -393 33 -3 c27 -3 34 1 42 23 6 16 10 174 10 396 l0 369 128 0 c86 0
132 4 140 12 15 15 15 51 0 66 -17 17 -619 17 -636 0z"/>
<path d="M8342 1215 c-125 -27 -239 -120 -300 -244 -36 -73 -37 -77 -37 -190
0 -110 2 -120 32 -184 166 -351 650 -351 816 0 30 64 32 74 32 183 0 109 -2
119 -32 183 -38 81 -122 173 -193 211 -53 29 -162 56 -220 55 -19 0 -64 -7
-98 -14z m183 -90 c86 -14 189 -94 233 -182 112 -219 -34 -490 -279 -518 -213
-25 -405 165 -386 384 7 86 35 149 94 212 55 59 121 95 195 108 53 9 66 8 143
-4z"/>
<path d="M11384 1215 c-84 -18 -138 -48 -206 -113 -99 -95 -138 -186 -138
-327 0 -135 41 -226 144 -323 101 -96 231 -136 368 -113 98 16 162 47 234 114
123 114 171 278 129 440 -21 80 -46 125 -103 188 -65 71 -142 116 -228 134
-83 18 -120 18 -200 0z m233 -107 c107 -39 193 -148 213 -271 40 -250 -188
-464 -431 -403 -108 28 -194 100 -242 204 -18 38 -22 66 -22 142 0 81 4 103
26 150 80 170 273 245 456 178z"/>
<path d="M9322 1208 c-9 -9 -12 -117 -12 -424 0 -362 2 -415 16 -428 20 -20
38 -20 58 0 13 12 16 39 16 127 l0 112 85 85 c73 73 87 82 99 70 7 -8 84 -104
170 -213 86 -108 161 -197 167 -197 5 0 19 5 30 10 39 21 22 55 -99 207 -64
81 -140 176 -167 211 l-49 63 167 167 c92 92 167 174 167 183 0 21 -20 39 -44
39 -12 0 -113 -92 -270 -247 l-251 -248 -3 234 c-1 152 -6 239 -13 248 -14 16
-51 17 -67 1z"/>
<path d="M10212 1208 c-9 -9 -12 -117 -12 -424 0 -362 2 -415 16 -428 20 -21
37 -20 57 2 15 16 17 59 19 345 l3 326 236 -327 c130 -180 246 -336 258 -346
18 -16 25 -17 46 -8 l25 12 0 414 c0 364 -2 417 -16 430 -20 21 -37 20 -57 -2
-15 -17 -17 -55 -17 -347 l0 -328 -251 346 c-258 356 -271 371 -307 335z"/>
<path d="M12012 1208 c-7 -7 -12 -19 -12 -27 0 -25 331 -804 351 -825 38 -40
54 -16 165 244 58 134 106 246 108 247 2 2 50 -107 106 -243 63 -147 111 -249
122 -255 38 -20 54 7 174 288 64 153 141 334 171 402 29 69 53 132 53 141 0
42 -61 55 -83 18 -8 -13 -77 -172 -153 -355 -76 -182 -142 -329 -146 -325 -4
4 -50 111 -103 237 -54 127 -102 236 -107 243 -6 6 -21 12 -33 12 -12 0 -27
-6 -33 -12 -5 -7 -54 -116 -107 -243 -54 -126 -101 -233 -104 -237 -4 -4 -60
119 -126 275 -178 424 -180 427 -207 427 -13 0 -29 -5 -36 -12z"/>
<path d="M443 1094 c-39 -20 -63 -68 -63 -128 0 -46 0 -46 -35 -46 -67 0 -70
-75 -2 -82 l32 -3 5 -204 c4 -180 7 -205 23 -215 12 -8 22 -8 35 0 15 10 18
35 22 215 l5 204 34 5 c70 10 67 72 -4 78 l-37 3 5 41 c7 49 15 58 59 67 27 5
34 12 36 35 2 16 -2 32 -10 37 -21 14 -70 10 -105 -7z"/>
<path d="M3212 1097 c-9 -11 -12 -102 -10 -342 3 -300 5 -329 21 -339 12 -8
22 -8 35 0 16 10 17 38 17 350 l0 339 -26 3 c-14 2 -31 -3 -37 -11z"/>
<path d="M14671 1096 c-29 -16 -50 -52 -51 -88 -1 -105 129 -146 187 -59 28
42 29 66 3 109 -30 49 -89 66 -139 38z"/>
<path d="M724 896 c-109 -48 -171 -177 -141 -293 48 -183 247 -250 383 -130
61 54 84 104 84 187 0 108 -56 198 -147 237 -41 17 -139 16 -179 -1z m174 -93
c38 -28 72 -92 72 -136 0 -53 -21 -97 -64 -135 -31 -27 -44 -32 -88 -32 -66 0
-110 27 -138 86 -41 83 -17 169 61 222 27 19 43 23 82 19 27 -2 61 -13 75 -24z"/>
<path d="M1127 903 c-4 -3 -7 -111 -7 -238 0 -197 2 -235 15 -245 12 -10 21
-10 40 -2 24 11 25 14 25 127 0 103 3 121 24 164 28 55 84 108 124 117 53 12
60 15 66 30 3 9 1 24 -4 35 -20 36 -113 18 -187 -37 -22 -16 -23 -16 -23 8 0
13 -5 29 -12 36 -13 13 -50 16 -61 5z"/>
<path d="M1484 897 c-2 -7 -3 -115 -2 -241 3 -205 5 -230 21 -240 12 -8 22 -8
35 0 15 10 18 33 22 170 5 173 11 193 63 224 41 25 83 25 124 0 56 -34 63 -61
63 -234 l0 -156 25 -6 c47 -12 53 5 57 169 4 168 12 195 63 227 59 36 134 17
170 -43 17 -27 21 -55 23 -182 2 -83 8 -156 14 -162 14 -17 33 -16 52 3 13 13
16 42 16 157 0 165 -9 204 -56 257 -50 56 -94 73 -170 68 -52 -3 -71 -10 -109
-37 l-46 -33 -22 20 c-53 50 -153 66 -224 37 -32 -14 -38 -14 -53 0 -20 18
-59 20 -66 2z"/>
<path d="M2435 890 c-89 -46 -138 -125 -139 -224 -1 -144 103 -250 244 -250
76 0 130 23 178 79 34 38 40 63 20 83 -21 21 -41 13 -85 -30 -37 -36 -49 -42
-96 -46 -73 -6 -120 17 -154 75 -15 27 -22 48 -17 53 5 5 95 11 199 12 l190 3
0 51 c-1 69 -43 137 -109 179 -65 39 -169 46 -231 15z m194 -89 c17 -13 38
-36 46 -52 l16 -29 -151 0 c-85 0 -150 4 -150 9 0 18 54 74 85 87 42 20 116
12 154 -15z"/>
<path d="M2842 898 c-9 -9 -12 -72 -12 -240 l0 -228 25 -12 c46 -21 55 0 55
124 0 98 3 115 26 163 35 71 72 105 131 120 54 14 74 36 57 63 -9 13 -25 17
-63 17 -40 -1 -60 -7 -96 -33 -25 -18 -47 -32 -50 -32 -2 0 -5 15 -7 33 -2 26
-8 33 -28 35 -14 2 -31 -3 -38 -10z"/>
<path d="M3400 891 c-13 -25 -13 -252 1 -311 23 -100 101 -164 199 -164 32 0
69 7 89 17 19 9 35 16 37 14 2 -1 -5 -21 -15 -43 -33 -72 -96 -97 -202 -79
-42 7 -48 5 -58 -14 -18 -32 2 -57 53 -70 60 -15 95 -14 147 4 64 23 104 59
133 118 l26 53 -2 244 -3 245 -37 3 -38 3 0 -151 c0 -166 -8 -201 -55 -238
-32 -25 -96 -29 -133 -8 -13 7 -32 26 -43 42 -16 25 -19 48 -19 180 0 103 -4
154 -12 162 -18 18 -56 14 -68 -7z"/>
</g>
</svg>
